<?xml version="1.0" standalone="no"?>
<!DOCTYPE svg PUBLIC "-//W3C//DTD SVG 20010904//EN"
 "http://www.w3.org/TR/2001/REC-SVG-20010904/DTD/svg10.dtd">
<svg version="1.0" xmlns="http://www.w3.org/2000/svg"
 width="500.000000pt" height="500.000000pt" viewBox="0 0 500.000000 500.000000"
 preserveAspectRatio="xMidYMid meet">
<metadata>
Created by potrace 1.11, written by Peter Selinger 2001-2013
</metadata>
<g transform="translate(0.000000,500.000000) scale(0.100000,-0.100000)"
fill="#000000" stroke="none">
<path d="M1541 4549 c-18 -4 -44 -17 -58 -30 -49 -46 -53 -69 -53 -338 l0
-250 -268 -3 -267 -3 -37 -34 c-20 -18 -41 -45 -46 -60 -5 -14 -10 -111 -10
-216 0 -104 -1 -217 -1 -250 0 -33 0 -292 1 -576 0 -284 -2 -521 -6 -528 -4
-6 -4 -11 1 -11 10 0 9 -502 -1 -518 -4 -7 -4 -12 1 -12 4 0 7 -260 7 -578 -1
-332 3 -588 8 -602 15 -40 59 -79 97 -86 20 -4 44 -11 53 -15 10 -5 19 -5 23
0 5 10 37 7 55 -4 6 -3 10 -2 10 3 0 5 7 9 15 9 8 0 15 -5 15 -11 0 -7 3 -8 8
-1 9 12 102 14 102 2 0 -4 4 -5 10 -2 19 11 50 14 55 4 4 -5 11 -6 17 -3 16
10 78 12 78 2 0 -5 8 -5 18 0 15 8 34 8 47 2 13 -6 32 -6 48 2 11 6 17 5 17
-4 0 -8 3 -9 8 -3 8 12 41 13 60 2 6 -5 12 -4 12 2 0 10 31 8 49 -4 5 -3 12
-1 16 4 5 10 36 7 55 -4 6 -3 10 -2 10 3 0 5 7 9 15 9 8 0 15 -5 15 -11 0 -7
3 -8 8 -1 9 12 102 14 102 2 0 -4 4 -5 10 -2 19 11 50 14 55 4 4 -5 11 -6 17
-3 16 10 78 12 78 2 0 -5 5 -6 11 -2 18 11 69 13 75 3 3 -5 14 -4 25 1 14 8
19 7 19 -2 0 -8 3 -9 8 -3 8 12 41 13 60 2 6 -5 12 -4 12 2 0 10 31 8 49 -4 5
-3 12 -1 16 4 5 10 36 7 55 -4 6 -3 10 -2 10 3 0 5 7 9 15 9 8 0 15 -5 15 -11
0 -7 3 -8 8 -1 9 12 102 14 102 2 0 -4 4 -5 10 -2 19 11 50 14 55 4 4 -5 11
-6 17 -3 16 10 78 12 78 2 0 -5 8 -5 18 0 15 8 34 8 47 2 13 -6 32 -6 48 2 11
6 17 5 17 -4 0 -8 3 -9 8 -3 8 12 41 13 60 2 6 -5 12 -4 12 2 0 10 31 8 49 -4
5 -3 12 -1 16 4 5 10 36 7 55 -4 6 -3 10 -2 10 3 0 5 7 9 15 9 8 0 15 -5 15
-11 0 -7 3 -8 8 -1 9 12 102 14 102 2 0 -4 4 -5 10 -2 19 11 50 14 55 4 4 -5
11 -6 17 -3 16 10 78 12 78 2 0 -5 7 -5 18 0 20 10 82 9 99 -1 6 -4 15 -2 19
4 4 8 9 7 15 -2 6 -10 9 -11 9 -1 0 7 13 12 29 12 16 0 34 7 41 15 7 9 19 14
27 11 8 -3 12 -2 8 3 -3 5 4 25 16 45 19 33 20 49 19 290 l-1 254 256 1 c214
1 260 3 286 17 42 21 78 64 79 92 0 13 4 21 9 18 4 -3 6 9 4 27 -8 60 -9 87
-4 87 3 0 6 16 6 35 0 19 -3 35 -7 35 -4 0 -4 10 0 23 4 12 6 38 4 57 -5 65
-4 129 3 140 3 5 3 10 -2 10 -7 0 -8 28 -2 100 1 14 -2 33 -6 43 -4 10 -3 17
4 17 6 0 8 6 5 14 -7 18 -10 166 -4 166 3 0 5 16 5 35 0 19 -3 35 -7 35 -4 0
-4 10 0 23 4 12 6 38 4 57 -5 65 -4 129 3 140 3 5 3 10 -2 10 -7 0 -8 28 -2
100 1 14 -2 33 -6 43 -4 9 -3 17 1 17 5 0 9 20 9 45 0 25 -3 45 -7 45 -4 0 -4
10 0 23 6 19 7 58 2 80 -2 9 -2 76 0 80 6 8 5 47 0 47 -4 0 -4 20 0 45 4 25 3
45 -1 45 -5 0 -5 10 -1 23 7 21 7 43 -1 115 -2 17 0 32 3 32 4 0 4 20 0 45 -4
24 -3 50 1 57 4 6 5 16 2 22 -4 5 -5 39 -4 75 1 36 2 71 2 76 -5 182 -5 285
-1 285 3 0 5 16 5 35 0 19 -3 35 -7 35 -4 0 -4 10 0 23 4 12 6 38 4 57 -5 65
-4 129 3 140 3 5 3 10 -2 10 -7 0 -8 28 -2 100 1 14 -2 33 -6 43 -4 9 -3 17 2
17 4 0 7 17 5 38 -1 20 -2 66 -2 102 1 36 1 72 1 80 -1 17 0 140 1 155 1 22
-14 80 -23 92 -6 7 -7 18 -3 25 4 7 3 10 -1 5 -5 -4 -18 2 -30 13 -12 11 -33
23 -46 27 -33 8 -2517 10 -2558 2z"/>
</g>
</svg>
